<?xml version="1.0" encoding="UTF-8"?>
<svg id="Calque_1" data-name="Calque 1" xmlns="http://www.w3.org/2000/svg" viewBox="0 0 389.75 390.96">
  <defs>
    <style>
      .cls-1 {
        fill: #1d2f1a;
      }
    </style>
  </defs>
  <path class="cls-1" d="M86.88,299.79h33.91V90.86h-17.72c-4.08,0-8.66.36-13.74,1.07-5.09.72-10.23,2.7-15.43,5.96-5.19,3.26-10.19,8.4-14.97,15.43-4.79,7.02-8.91,16.75-12.37,29.17h-3.36v-55.9h108.09l.04,4.28v213.2h-64.45v-4.28Z"/>
  <path class="cls-1" d="M164.2,299.79V86.59h22.91c2.85,0,5.7-.05,8.55-.15,2.85-.1,5.7-.25,8.55-.46,2.85,0,5.7-.05,8.55-.15,2.85-.1,5.7-.15,8.55-.15,6.11,0,11.55.11,16.34.31,4.78.21,9.27.56,13.44,1.07,4.17.51,8.14,1.22,11.91,2.14,3.77.92,7.79,2.09,12.07,3.51,12.42,4.08,23.16,9.52,32.23,16.34,9.06,6.83,16.49,14.71,22.3,23.67,5.8,8.96,10.08,18.74,12.83,29.32,2.75,10.59,4.12,21.69,4.12,33.3,0,13.44-1.63,25.5-4.89,36.19-3.26,10.69-7.74,20.16-13.44,28.41-5.71,8.25-12.37,15.38-20.01,21.38-7.64,6.01-15.83,10.84-24.58,14.51-4.89,2.24-9.52,3.97-13.9,5.19-4.39,1.22-8.86,2.14-13.44,2.75-4.58.61-9.62,1.02-15.12,1.22-5.5.2-11.81.31-18.94.31-3.05,0-6.31-.05-9.77-.15-3.46-.11-6.93-.26-10.39-.46-3.46-.21-6.87-.36-10.23-.46-3.36-.1-6.57-.15-9.62-.15h-17.99l-.04-4.28ZM194.74,299.79c3.46.41,7.48.72,12.07.92,4.58.21,9.62.31,15.12.31,6.92,0,13.79-.35,20.62-1.07,6.82-.71,13.34-2.24,19.55-4.58,6.21-2.34,12.01-5.7,17.41-10.08,5.39-4.38,10.23-10.13,14.51-17.26,6.52-11,11.04-22.24,13.6-33.75,2.54-11.5,3.82-24.08,3.82-37.72,0-16.08-1.53-30.7-4.58-43.83-3.06-13.14-8.09-24.33-15.12-33.6-7.02-9.26-16.34-16.44-27.95-21.54-11.6-5.09-25.96-7.64-43.07-7.64-5.09,0-9.73.11-13.9.31-4.18.21-8.2.41-12.07.61v208.93Z"/>
</svg>