<?xml version="1.0" encoding="UTF-8"?>
<svg id="Calque_1" data-name="Calque 1" xmlns="http://www.w3.org/2000/svg" viewBox="0 0 868.97 301.83">
  <defs>
    <style>
      .cls-1 {
        fill: #3b652b;
      }
    </style>
  </defs>
  <g>
    <path class="cls-1" d="M389.69,129.1v-1.87h10.54V59.14h-5.79c-2.56,0-4.76.53-6.63,1.58-1.87,1.05-3.45,2.53-4.72,4.43-1.27,1.9-2.3,4.13-3.09,6.71-.78,2.56-1.35,5.37-1.7,8.4h-1.96v-22.99h62.64v22.99h-1.87c-.35-3.03-.92-5.84-1.7-8.4-.79-2.57-1.82-4.81-3.09-6.71-1.27-1.9-2.86-3.38-4.74-4.43-1.88-1.05-4.08-1.58-6.61-1.58h-5.84v68.1h10.54v1.87h-35.97Z"/>
    <path class="cls-1" d="M463.82,85.04v42.19h6.51v1.87h-26.39v-1.87h6.47v-40.32h-6.47v-1.87h19.87ZM457.12,72.74c-2.27,0-4.19-.79-5.77-2.37-1.58-1.58-2.37-3.5-2.37-5.77s.79-4.28,2.37-5.84c1.58-1.56,3.5-2.35,5.77-2.35s4.28.79,5.84,2.35c1.56,1.56,2.35,3.51,2.35,5.84s-.79,4.19-2.35,5.77c-1.56,1.58-3.51,2.37-5.84,2.37Z"/>
    <path class="cls-1" d="M494.52,85.04v42.19h4.79v1.87h-24.62v-1.87h6.51v-40.32h-6.51v-1.87h19.83ZM521.82,98.5v28.74h4.79v1.87h-22.84v-1.87h4.74v-27.73c0-2.68-.1-4.85-.31-6.51-.21-1.66-.6-2.88-1.17-3.66-.58-.79-1.42-1.18-2.54-1.18-1.56,0-2.96.59-4.19,1.75-1.23,1.16-2.27,2.7-3.14,4.62-.86,1.91-1.51,4.01-1.96,6.27-.44,2.27-.67,4.52-.67,6.76l-1.15.1c0-2.3.22-4.8.67-7.5.45-2.7,1.25-5.27,2.42-7.71,1.16-2.45,2.8-4.45,4.91-6.01,2.1-1.57,4.79-2.35,8.05-2.35s5.63.62,7.42,1.87c1.79,1.24,3.06,2.95,3.83,5.12.76,2.17,1.15,4.65,1.15,7.42ZM549.06,98.5v28.74h6.51v1.87h-24.56v-1.87h4.79v-27.73c0-2.68-.11-4.85-.33-6.51-.22-1.66-.65-2.88-1.27-3.66-.62-.79-1.5-1.18-2.65-1.18-1.6,0-2.99.59-4.19,1.75-1.19,1.16-2.21,2.7-3.04,4.62-.83,1.91-1.45,4.01-1.87,6.27-.41,2.27-.62,4.52-.62,6.76l-1.2.1c0-2.3.21-4.8.62-7.5.41-2.7,1.18-5.27,2.27-7.71,1.1-2.45,2.7-4.45,4.79-6.01,2.1-1.57,4.82-2.35,8.17-2.35,3.13,0,5.62.62,7.45,1.87,1.84,1.24,3.16,2.95,3.96,5.12.79,2.17,1.19,4.65,1.19,7.42Z"/>
    <path class="cls-1" d="M585.07,130.06c-4.85,0-9.03-1.05-12.52-3.16-3.5-2.11-6.19-4.91-8.07-8.38-1.88-3.48-2.82-7.3-2.82-11.45s.94-7.97,2.82-11.45c1.88-3.48,4.57-6.27,8.07-8.38,3.5-2.1,7.67-3.16,12.52-3.16s8.97,1.05,12.45,3.16c3.48,2.11,6.17,4.91,8.05,8.38,1.88,3.48,2.82,7.3,2.82,11.45s-.94,7.97-2.82,11.45c-1.88,3.48-4.56,6.27-8.05,8.38-3.48,2.1-7.63,3.16-12.45,3.16ZM585.07,128.19c1.73,0,3.18-.56,4.36-1.67,1.18-1.12,2.11-2.65,2.8-4.59.69-1.95,1.19-4.2,1.49-6.76.3-2.55.45-5.25.45-8.09s-.16-5.58-.45-8.11c-.3-2.54-.8-4.79-1.49-6.73-.69-1.95-1.62-3.48-2.8-4.6-1.18-1.12-2.63-1.67-4.36-1.67s-3.22.56-4.41,1.67c-1.18,1.12-2.11,2.65-2.8,4.6-.68,1.94-1.18,4.19-1.48,6.73-.3,2.53-.45,5.24-.45,8.11s.15,5.54.45,8.09c.3,2.56.8,4.81,1.48,6.76.69,1.94,1.62,3.48,2.8,4.59,1.19,1.12,2.65,1.67,4.41,1.67Z"/>
    <path class="cls-1" d="M613.57,86.91v-1.87h30.37v1.87h-30.37ZM631.67,129.77c-3.1,0-5.46-.52-7.11-1.56-1.65-1.04-2.77-2.44-3.38-4.21-.61-1.77-.91-3.79-.91-6.06v-42.48c2.17,0,4.53-.24,7.07-.71,2.53-.48,4.65-1.2,6.34-2.16v46.88c0,2.39.28,4.08.84,5.05.56.97,1.51,1.46,2.85,1.46s2.82-.59,4.23-1.77c1.42-1.19,2.59-2.79,3.53-4.84l1.67.82c-1.22,2.84-3.05,5.15-5.51,6.92-2.45,1.77-5.66,2.65-9.63,2.65Z"/>
    <path class="cls-1" d="M649.82,129.1v-1.87h6.51V59.14h-6.51v-1.87h19.93v69.96h5.02v1.87h-24.95ZM680.52,129.1v-1.87h5.03v-27.54c0-2.68-.12-4.85-.34-6.51-.22-1.66-.67-2.88-1.34-3.64-.67-.77-1.66-1.16-2.96-1.16-1.79,0-3.38.59-4.76,1.75-1.39,1.17-2.56,2.71-3.5,4.62-.94,1.92-1.66,4-2.16,6.25-.5,2.25-.74,4.48-.74,6.68l-1.44.1c0-2.27.26-4.76.79-7.49.53-2.73,1.42-5.33,2.67-7.79,1.27-2.45,2.99-4.48,5.2-6.05,2.2-1.59,4.98-2.37,8.33-2.37,3.61,0,6.39.62,8.34,1.87,1.95,1.24,3.3,2.95,4.07,5.12.77,2.17,1.15,4.65,1.15,7.42v28.74h6.51v1.87h-24.85Z"/>
    <path class="cls-1" d="M734.64,130.06c-4.44,0-8.41-.88-11.92-2.65-3.51-1.78-6.28-4.37-8.28-7.79-2.02-3.42-3.02-7.6-3.02-12.55s.96-9.13,2.9-12.55c1.93-3.42,4.61-6.01,8.04-7.78,3.43-1.78,7.39-2.66,11.86-2.66,4.69,0,8.56.96,11.59,2.88,3.03,1.91,5.29,4.4,6.77,7.47,1.49,3.06,2.23,6.34,2.23,9.82h-36.97v-1.87h22.7c0-1.92-.07-3.84-.19-5.77-.13-1.93-.39-3.7-.79-5.31-.4-1.62-1.02-2.91-1.87-3.88-.85-.97-2.01-1.46-3.48-1.46-1.6,0-2.92.53-3.97,1.58-1.06,1.05-1.87,2.51-2.45,4.39-.58,1.87-.99,4.01-1.22,6.44-.24,2.42-.36,5.01-.36,7.76,0,3.1.15,5.96.45,8.6.3,2.63.84,4.93,1.61,6.87.76,1.95,1.85,3.47,3.25,4.55,1.41,1.09,3.21,1.63,5.41,1.63,4.05,0,7.48-1.11,10.28-3.33,2.79-2.22,4.78-5.04,5.96-8.45h2.02c-1.24,4.02-3.55,7.37-6.9,10.06-3.35,2.68-7.9,4.02-13.65,4.02ZM729.89,76.66l-1-1.29,8.33-11.45c.96-1.53,2.1-2.48,3.42-2.85,1.33-.36,2.61-.34,3.85.07,1.25.41,2.16,1.07,2.73,1.96.67,1.02.94,2.18.82,3.48-.13,1.29-.62,2.46-1.49,3.52-.86,1.05-2.06,1.77-3.59,2.15l-13.08,4.41Z"/>
    <path class="cls-1" d="M785.68,130.06c-4.44,0-8.41-.88-11.92-2.65-3.51-1.78-6.28-4.37-8.28-7.79-2.02-3.42-3.02-7.6-3.02-12.55s.96-9.13,2.9-12.55c1.93-3.42,4.61-6.01,8.04-7.78,3.43-1.78,7.39-2.66,11.86-2.66,4.69,0,8.56.96,11.59,2.88,3.03,1.91,5.29,4.4,6.77,7.47,1.49,3.06,2.23,6.34,2.23,9.82h-36.97v-1.87h22.7c0-1.92-.07-3.84-.19-5.77s-.39-3.7-.79-5.31c-.4-1.62-1.02-2.91-1.87-3.88-.85-.97-2.01-1.46-3.48-1.46-1.6,0-2.92.53-3.97,1.58-1.06,1.05-1.87,2.51-2.45,4.39-.58,1.87-.99,4.01-1.22,6.44-.24,2.42-.36,5.01-.36,7.76,0,3.1.15,5.96.45,8.6.3,2.63.84,4.93,1.61,6.87.76,1.95,1.85,3.47,3.25,4.55,1.41,1.09,3.21,1.63,5.41,1.63,4.05,0,7.48-1.11,10.28-3.33,2.79-2.22,4.78-5.04,5.96-8.45h2.02c-1.24,4.02-3.55,7.37-6.9,10.06-3.35,2.68-7.9,4.02-13.65,4.02Z"/>
    <path class="cls-1" d="M407.03,172.21c7.6,0,14.11,1.5,19.53,4.52,5.43,3.02,9.6,7.22,12.5,12.62,2.9,5.4,4.36,11.66,4.36,18.78,0,5.36-.86,10.24-2.59,14.63-1.72,4.39-4.19,8.17-7.4,11.35s-7.05,5.62-11.52,7.35c-4.48,1.73-9.44,2.59-14.89,2.59h-30.7v-1.87h8.67v-68.1h-8.67v-1.87h30.7ZM399.89,242.17h7.14c3.7,0,6.8-.88,9.31-2.64,2.5-1.75,4.51-4.19,6.03-7.3,1.52-3.11,2.61-6.73,3.28-10.85.67-4.12,1-8.54,1-13.26s-.38-9.15-1.15-13.26c-.76-4.12-1.93-7.74-3.5-10.85-1.56-3.11-3.58-5.55-6.05-7.31s-5.45-2.63-8.93-2.63h-7.14v68.1Z"/>
    <path class="cls-1" d="M516.45,172.21v1.87h-9v47.93c0,7.88-1.88,13.76-5.65,17.62-3.77,3.87-9.55,5.79-17.34,5.79-9,0-15.57-1.83-19.7-5.51-4.13-3.67-6.2-9.64-6.2-17.91v-47.93h-8.63v-1.87h33.09v1.87h-9.57v46.98c0,3.16.19,6.06.57,8.71.39,2.65,1.1,4.95,2.16,6.9s2.55,3.45,4.48,4.52c1.93,1.07,4.43,1.61,7.5,1.61,3.48,0,6.53-.69,9.14-2.06,2.62-1.37,4.65-3.57,6.11-6.61,1.45-3.03,2.18-7.07,2.18-12.12v-47.93h-8.66v-1.87h19.53Z"/>
    <path class="cls-1" d="M538.24,207.64v-1.15h13.89c3.07,0,5.63-.56,7.69-1.67,2.05-1.12,3.6-2.88,4.64-5.27,1.04-2.39,1.56-5.51,1.56-9.34s-.52-6.89-1.56-9.27c-1.04-2.38-2.59-4.12-4.64-5.22-2.06-1.1-4.62-1.65-7.69-1.65h-31.17v-1.87h33.57c5.31,0,9.97.64,14.01,1.91,4.04,1.27,7.19,3.24,9.46,5.89,2.27,2.65,3.4,6.05,3.4,10.2s-1.07,7.5-3.21,10.06-5.21,4.42-9.22,5.6c-4.01,1.18-8.82,1.77-14.44,1.77h-16.28ZM520.96,244.04v-1.87h34.09v1.87h-34.09ZM530.58,243.03v-69.82h14.84v69.82h-14.84ZM577.99,244.76c-3.25,0-5.82-.51-7.68-1.53-1.87-1.02-3.24-2.39-4.12-4.12-.87-1.72-1.44-3.66-1.7-5.82-.26-2.16-.39-4.39-.41-6.71-.02-2.31-.11-4.55-.29-6.71-.18-2.15-.62-4.09-1.32-5.82-.7-1.72-1.87-3.1-3.5-4.12-1.62-1.02-3.91-1.53-6.85-1.53h-13.89v-1.01h21.55c4.44,0,7.95.62,10.54,1.87,2.59,1.24,4.52,2.9,5.79,4.98,1.27,2.07,2.13,4.35,2.54,6.82.41,2.47.62,4.94.62,7.4s.04,4.72.14,6.79c.1,2.07.44,3.75,1.05,5.01.61,1.26,1.73,1.89,3.36,1.89,1.02,0,1.94-.11,2.78-.33.83-.22,1.58-.5,2.25-.82l.62,1.82c-.76.41-2.18.84-4.24,1.27-2.06.43-4.48.64-7.25.64Z"/>
    <path class="cls-1" d="M634.02,170.81l24.76,71.36h7.37v1.87h-33v-1.87h8.38l-17.67-54.54-19.11,54.54h10.15v1.87h-21.12v-1.87h8.81l25.19-71.36h6.22ZM611.18,221.77v-1.87h29.45v1.87h-29.45Z"/>
    <path class="cls-1" d="M682.25,172.21v69.96h11.11v1.87h-22.89v-1.87h9.82v-68.1h-9.82v-1.87h11.78ZM741.11,172.21v1.87h-10.06v70.92h-2.63l-47.51-72.79h17.72l30.45,47.31v-45.45h-10.77v-1.87h22.8Z"/>
    <path class="cls-1" d="M776.11,172.21c7.6,0,14.11,1.5,19.53,4.52,5.43,3.02,9.6,7.22,12.5,12.62,2.9,5.4,4.36,11.66,4.36,18.78,0,5.36-.86,10.24-2.59,14.63-1.72,4.39-4.19,8.17-7.4,11.35s-7.05,5.62-11.52,7.35c-4.48,1.73-9.44,2.59-14.89,2.59h-30.7v-1.87h8.67v-68.1h-8.67v-1.87h30.7ZM768.97,242.17h7.14c3.7,0,6.8-.88,9.31-2.64,2.5-1.75,4.51-4.19,6.03-7.3,1.52-3.11,2.61-6.73,3.28-10.85.67-4.12,1-8.54,1-13.26s-.38-9.15-1.15-13.26c-.76-4.12-1.93-7.74-3.5-10.85-1.56-3.11-3.58-5.55-6.05-7.31s-5.45-2.63-8.93-2.63h-7.14v68.1Z"/>
  </g>
  <g>
    <path class="cls-1" d="M99.43,253.5h33.35V48.03h-17.43c-4.01,0-8.51.35-13.52,1.05-5.01.7-10.06,2.66-15.17,5.86-5.11,3.21-10.02,8.26-14.72,15.17-4.71,6.91-8.76,16.48-12.17,28.69h-3.3v-54.97h106.31l.04,4.21v209.68h-63.39v-4.21Z"/>
    <path class="cls-1" d="M171.88,48.03v-4.36c2.8-.1,6.51-.25,9.31-.45,2.8,0,5.6-.05,8.41-.15,2.8-.1,5.6-.15,8.41-.15,6.01,0,11.36.1,16.07.3,4.7.2,9.11.55,13.22,1.05,4.1.5,8.01,1.2,11.71,2.1,3.71.9,7.66,2.06,11.87,3.45,12.21,4.01,22.78,9.37,31.69,16.07,8.91,6.71,16.22,14.47,21.93,23.28,5.71,8.82,9.91,18.43,12.62,28.84,2.71,10.42,4.05,21.33,4.05,32.75,0,13.22-1.6,25.08-4.8,35.6-3.21,10.51-7.61,19.83-13.22,27.94-5.61,8.11-12.17,15.12-19.68,21.03-7.51,5.91-15.57,10.66-24.18,14.27-4.81,2.21-9.36,3.91-13.67,5.11-4.31,1.2-8.71,2.1-13.22,2.7-4.5.6-9.46,1-14.87,1.2-5.41.2-11.62.3-18.63.3-3,0-6.21-.05-9.61-.15-3.41-.1-6.81-.26-10.22-.45-2.43-.14-4.83-.26-7.21-.35v-4.45c3.4.4,7.36.7,11.87.9,4.5.2,9.46.3,14.87.3,6.8,0,13.56-.35,20.28-1.05,6.71-.7,13.12-2.2,19.23-4.51,6.1-2.3,11.81-5.6,17.12-9.91,5.31-4.3,10.07-9.96,14.27-16.97,6.41-10.81,10.86-21.88,13.37-33.19,2.5-11.31,3.75-23.68,3.75-37.1,0-15.82-1.5-30.19-4.5-43.11-3.01-12.92-7.96-23.93-14.87-33.04-6.91-9.11-16.07-16.17-27.49-21.18-11.41-5-25.54-7.51-42.36-7.51-5.01,0-9.57.1-13.67.3-4.11.2-8.07.4-11.87.6"/>
  </g>
</svg>