<?xml version="1.0" encoding="UTF-8"?>
<svg id="Calque_1" data-name="Calque 1" xmlns="http://www.w3.org/2000/svg" viewBox="0 0 862.68 239.8">
  <defs>
    <style>
      .cls-1 {
        fill: #fff;
      }

      .cls-2 {
        fill: none;
        stroke: #fff;
        stroke-miterlimit: 10;
        stroke-width: 2px;
      }
    </style>
  </defs>
  <g>
    <path class="cls-1" d="M59.86,97.49v-1.38h7.76v-50.17h-4.27c-1.88,0-3.51.39-4.89,1.16-1.38.78-2.53,1.87-3.48,3.26-.94,1.4-1.7,3.05-2.28,4.94-.58,1.89-.99,3.96-1.25,6.19h-1.45v-16.94h46.15v16.94h-1.38c-.26-2.23-.68-4.3-1.25-6.19-.58-1.89-1.33-3.54-2.28-4.94-.94-1.4-2.11-2.49-3.49-3.26-1.39-.78-3.01-1.16-4.87-1.16h-4.3v50.17h7.76v1.38h-26.5Z"/>
    <path class="cls-1" d="M114.48,65.03v31.08h4.8v1.38h-19.44v-1.38h4.76v-29.71h-4.76v-1.38h14.64ZM109.54,55.96c-1.67,0-3.09-.58-4.25-1.75-1.16-1.17-1.75-2.58-1.75-4.25s.58-3.15,1.75-4.3c1.16-1.15,2.58-1.73,4.25-1.73s3.15.58,4.3,1.73c1.15,1.15,1.73,2.59,1.73,4.3s-.58,3.09-1.73,4.25c-1.15,1.16-2.59,1.75-4.3,1.75Z"/>
    <path class="cls-1" d="M137.1,65.03v31.08h3.53v1.38h-18.14v-1.38h4.8v-29.71h-4.8v-1.38h14.61ZM157.21,74.94v21.17h3.53v1.38h-16.83v-1.38h3.49v-20.43c0-1.98-.08-3.58-.23-4.8-.15-1.22-.44-2.12-.86-2.7-.42-.58-1.05-.86-1.87-.86-1.15,0-2.18.43-3.09,1.29-.91.86-1.68,1.99-2.31,3.41-.64,1.41-1.12,2.95-1.45,4.62-.33,1.67-.49,3.33-.49,4.97l-.85.07c0-1.69.16-3.53.49-5.52.33-1.99.92-3.88,1.78-5.68.86-1.8,2.06-3.28,3.62-4.43,1.55-1.15,3.53-1.73,5.93-1.73s4.15.46,5.47,1.38c1.32.92,2.26,2.18,2.82,3.78.56,1.6.85,3.42.85,5.47ZM177.28,74.94v21.17h4.8v1.38h-18.1v-1.38h3.53v-20.43c0-1.98-.08-3.58-.25-4.8-.16-1.22-.48-2.12-.94-2.7-.46-.58-1.11-.86-1.96-.86-1.18,0-2.21.43-3.09,1.29-.88.86-1.63,1.99-2.24,3.41-.61,1.41-1.07,2.95-1.38,4.62-.31,1.67-.46,3.33-.46,4.97l-.88.07c0-1.69.15-3.53.46-5.52.31-1.99.86-3.88,1.68-5.68s1.99-3.28,3.53-4.43c1.54-1.15,3.55-1.73,6.02-1.73,2.3,0,4.13.46,5.49,1.38,1.35.92,2.32,2.18,2.91,3.78.59,1.6.88,3.42.88,5.47Z"/>
    <path class="cls-1" d="M203.82,98.2c-3.58,0-6.65-.78-9.23-2.33s-4.56-3.61-5.95-6.17c-1.39-2.56-2.08-5.38-2.08-8.43s.69-5.87,2.08-8.43c1.39-2.56,3.37-4.62,5.95-6.17s5.65-2.33,9.23-2.33,6.61.78,9.17,2.33,4.54,3.61,5.93,6.17c1.39,2.56,2.08,5.38,2.08,8.43s-.69,5.87-2.08,8.43c-1.39,2.56-3.36,4.62-5.93,6.17s-5.62,2.33-9.17,2.33ZM203.82,96.82c1.27,0,2.34-.41,3.21-1.24.87-.82,1.56-1.95,2.06-3.39.51-1.43.87-3.09,1.09-4.97.22-1.88.33-3.87.33-5.96s-.11-4.11-.33-5.98c-.22-1.87-.59-3.52-1.09-4.96-.51-1.43-1.19-2.56-2.06-3.39-.87-.82-1.94-1.24-3.21-1.24s-2.38.41-3.25,1.24-1.56,1.95-2.06,3.39c-.51,1.44-.87,3.09-1.09,4.96-.22,1.87-.33,3.86-.33,5.98s.11,4.08.33,5.96c.22,1.88.59,3.54,1.09,4.97.51,1.44,1.19,2.56,2.06,3.39s1.95,1.24,3.25,1.24Z"/>
    <path class="cls-1" d="M224.81,66.41v-1.38h22.37v1.38h-22.37ZM238.15,97.98c-2.28,0-4.03-.38-5.24-1.15-1.21-.76-2.04-1.8-2.49-3.11-.45-1.31-.67-2.79-.67-4.46v-31.3c1.6,0,3.33-.18,5.2-.53,1.87-.35,3.43-.88,4.67-1.59v34.54c0,1.76.21,3,.62,3.72.41.72,1.11,1.08,2.1,1.08s2.08-.44,3.12-1.31c1.05-.87,1.91-2.06,2.59-3.56l1.23.6c-.89,2.09-2.25,3.79-4.06,5.1-1.81,1.3-4.18,1.96-7.09,1.96Z"/>
    <path class="cls-1" d="M251.52,97.49v-1.38h4.8v-50.17h-4.8v-1.38h14.68v51.55h3.71v1.38h-18.38ZM274.13,97.49v-1.38h3.71v-20.29c0-1.98-.08-3.58-.25-4.8-.17-1.22-.49-2.12-.99-2.68s-1.22-.85-2.19-.85c-1.32,0-2.49.43-3.51,1.29-1.02.86-1.88,1.99-2.58,3.4-.69,1.41-1.22,2.95-1.59,4.6s-.55,3.3-.55,4.92l-1.06.07c0-1.67.19-3.51.58-5.52.39-2.01,1.05-3.92,1.98-5.73.93-1.81,2.21-3.3,3.83-4.46,1.62-1.17,3.67-1.75,6.14-1.75,2.66,0,4.7.46,6.14,1.38,1.43.92,2.43,2.18,3,3.78.56,1.6.85,3.42.85,5.47v21.17h4.8v1.38h-18.31Z"/>
    <path class="cls-1" d="M314,98.2c-3.27,0-6.2-.65-8.79-1.96-2.59-1.3-4.62-3.22-6.1-5.73-1.48-2.52-2.22-5.6-2.22-9.24s.71-6.73,2.13-9.24c1.42-2.52,3.4-4.43,5.93-5.73,2.53-1.3,5.44-1.96,8.73-1.96,3.46,0,6.3.71,8.54,2.12s3.9,3.25,4.99,5.5c1.09,2.26,1.64,4.67,1.64,7.23h-27.24v-1.38h16.72c0-1.41-.05-2.83-.14-4.25-.09-1.42-.29-2.73-.58-3.92s-.75-2.14-1.38-2.86c-.62-.72-1.48-1.08-2.56-1.08-1.18,0-2.15.39-2.93,1.17s-1.38,1.85-1.8,3.23c-.42,1.38-.72,2.96-.9,4.75-.18,1.79-.26,3.69-.26,5.72,0,2.28.11,4.39.34,6.33.22,1.94.62,3.63,1.18,5.06.56,1.44,1.36,2.55,2.4,3.35s2.36,1.2,3.99,1.2c2.99,0,5.51-.82,7.57-2.45,2.06-1.63,3.52-3.71,4.39-6.23h1.48c-.92,2.96-2.61,5.43-5.08,7.41-2.47,1.98-5.82,2.96-10.06,2.96ZM310.51,58.85l-.74-.95,6.14-8.43c.71-1.13,1.55-1.83,2.52-2.1.98-.27,1.92-.25,2.84.05.92.31,1.59.79,2.01,1.45.49.75.69,1.61.6,2.56-.09.95-.46,1.82-1.09,2.59-.63.78-1.52,1.31-2.65,1.59l-9.63,3.25Z"/>
    <path class="cls-1" d="M351.62,98.2c-3.27,0-6.2-.65-8.79-1.96-2.59-1.3-4.62-3.22-6.1-5.73-1.48-2.52-2.22-5.6-2.22-9.24s.71-6.73,2.13-9.24,3.4-4.43,5.93-5.73c2.53-1.3,5.44-1.96,8.73-1.96,3.46,0,6.3.71,8.54,2.12s3.9,3.25,4.99,5.5c1.09,2.26,1.64,4.67,1.64,7.23h-27.24v-1.38h16.72c0-1.41-.05-2.83-.14-4.25-.09-1.42-.29-2.73-.58-3.92s-.75-2.14-1.38-2.86c-.62-.72-1.48-1.08-2.56-1.08-1.18,0-2.15.39-2.93,1.17-.78.78-1.38,1.85-1.8,3.23-.42,1.38-.72,2.96-.9,4.75-.18,1.79-.26,3.69-.26,5.72,0,2.28.11,4.39.33,6.33s.62,3.63,1.18,5.06c.56,1.44,1.36,2.55,2.4,3.35s2.36,1.2,3.99,1.2c2.99,0,5.51-.82,7.57-2.45,2.06-1.63,3.52-3.71,4.39-6.23h1.48c-.92,2.96-2.61,5.43-5.08,7.41-2.47,1.98-5.82,2.96-10.06,2.96Z"/>
    <path class="cls-1" d="M67.27,129.25c5.6,0,10.4,1.11,14.4,3.33,4,2.22,7.07,5.32,9.21,9.3,2.14,3.98,3.21,8.59,3.21,13.83,0,3.95-.64,7.54-1.91,10.78-1.27,3.23-3.09,6.02-5.45,8.36-2.36,2.34-5.19,4.15-8.49,5.42-3.29,1.27-6.95,1.91-10.97,1.91h-22.62v-1.38h6.39v-50.17h-6.39v-1.38h22.62ZM62.01,180.8h5.26c2.73,0,5.02-.65,6.86-1.94,1.85-1.29,3.33-3.09,4.45-5.38,1.12-2.29,1.92-4.96,2.42-7.99s.74-6.29.74-9.77-.28-6.74-.85-9.77-1.42-5.7-2.58-7.99c-1.15-2.29-2.64-4.09-4.46-5.38-1.82-1.29-4.02-1.94-6.58-1.94h-5.26v50.17Z"/>
    <path class="cls-1" d="M147.89,129.25v1.38h-6.63v35.32c0,5.81-1.39,10.14-4.16,12.98-2.78,2.85-7.03,4.27-12.77,4.27-6.63,0-11.47-1.35-14.52-4.06-3.05-2.71-4.57-7.1-4.57-13.2v-35.32h-6.35v-1.38h24.38v1.38h-7.06v34.61c0,2.33.14,4.47.42,6.42.28,1.95.81,3.65,1.59,5.08s1.88,2.55,3.3,3.33c1.42.79,3.26,1.18,5.52,1.18,2.56,0,4.81-.51,6.74-1.52,1.93-1.01,3.43-2.63,4.5-4.87,1.07-2.23,1.61-5.21,1.61-8.93v-35.32h-6.39v-1.38h14.4Z"/>
    <path class="cls-1" d="M163.94,155.36v-.85h10.23c2.26,0,4.15-.41,5.66-1.24s2.66-2.12,3.42-3.88c.76-1.76,1.15-4.06,1.15-6.88s-.38-5.08-1.15-6.83c-.76-1.75-1.91-3.03-3.42-3.85s-3.4-1.22-5.66-1.22h-22.97v-1.38h24.73c3.9,0,7.34.47,10.32,1.41,2.98.94,5.3,2.39,6.97,4.34,1.67,1.95,2.51,4.46,2.51,7.52s-.79,5.53-2.36,7.41c-1.58,1.88-3.84,3.26-6.79,4.13-2.95.87-6.5,1.31-10.64,1.31h-12ZM151.21,182.17v-1.38h25.12v1.38h-25.12ZM158.3,181.43v-51.44h10.94v51.44h-10.94ZM193.23,182.7c-2.4,0-4.29-.38-5.66-1.13-1.38-.75-2.39-1.76-3.03-3.03-.65-1.27-1.06-2.7-1.25-4.29-.19-1.59-.29-3.23-.3-4.94-.01-1.71-.08-3.35-.21-4.94-.13-1.59-.45-3.02-.97-4.29-.52-1.27-1.38-2.28-2.58-3.03s-2.88-1.13-5.05-1.13h-10.23v-.74h15.88c3.27,0,5.86.46,7.76,1.38,1.91.92,3.33,2.14,4.27,3.67.94,1.53,1.56,3.21,1.87,5.03.31,1.82.46,3.64.46,5.45s.04,3.48.11,5.01c.07,1.53.33,2.76.78,3.69.45.93,1.27,1.39,2.47,1.39.75,0,1.43-.08,2.05-.25.61-.16,1.16-.36,1.66-.6l.46,1.34c-.56.31-1.61.62-3.12.93-1.52.32-3.3.48-5.35.48Z"/>
    <path class="cls-1" d="M234.51,128.22l18.24,52.57h5.43v1.38h-24.31v-1.38h6.17l-13.02-40.19-14.08,40.19h7.48v1.38h-15.56v-1.38h6.49l18.56-52.57h4.59ZM217.68,165.76v-1.38h21.7v1.38h-21.7Z"/>
    <path class="cls-1" d="M270.04,129.25v51.55h8.19v1.38h-16.87v-1.38h7.23v-50.17h-7.23v-1.38h8.68ZM313.4,129.25v1.38h-7.41v52.26h-1.94l-35-53.63h13.05l22.44,34.86v-33.48h-7.94v-1.38h16.79Z"/>
    <path class="cls-1" d="M339.2,129.25c5.6,0,10.4,1.11,14.4,3.33,4,2.22,7.07,5.32,9.21,9.3s3.21,8.59,3.21,13.83c0,3.95-.63,7.54-1.91,10.78-1.27,3.23-3.09,6.02-5.45,8.36s-5.19,4.15-8.49,5.42-6.95,1.91-10.97,1.91h-22.62v-1.38h6.39v-50.17h-6.39v-1.38h22.62ZM333.94,180.8h5.26c2.73,0,5.02-.65,6.86-1.94,1.85-1.29,3.33-3.09,4.45-5.38,1.12-2.29,1.92-4.96,2.42-7.99.49-3.03.74-6.29.74-9.77s-.28-6.74-.85-9.77-1.42-5.7-2.57-7.99c-1.15-2.29-2.64-4.09-4.46-5.38-1.82-1.29-4.02-1.94-6.58-1.94h-5.26v50.17Z"/>
  </g>
  <g>
    <path class="cls-1" d="M491.34,79.58c-3.79,0-7.1-.93-9.96-2.8-2.85-1.86-5.07-4.42-6.66-7.66-1.58-3.25-2.38-6.94-2.38-11.08s.79-7.85,2.38-11.09,3.8-5.79,6.66-7.65c2.85-1.86,6.17-2.8,9.96-2.8,1.86,0,3.64.32,5.33.96s3.17,1.54,4.43,2.7l2.91-3.1h.98v11.47h-1.12c-.09-2.18-.71-4.07-1.86-5.68s-2.61-2.84-4.39-3.72c-1.78-.88-3.69-1.31-5.72-1.31-2.42,0-4.48.57-6.17,1.71-1.69,1.14-3.04,2.67-4.06,4.6s-1.76,4.1-2.22,6.5-.7,4.88-.7,7.41.23,5.01.7,7.41,1.21,4.57,2.22,6.5c1.02,1.93,2.37,3.46,4.06,4.6s3.74,1.71,6.17,1.71c1.85,0,3.52-.28,5.02-.83s2.8-1.31,3.9-2.29c1.1-.98,1.96-2.12,2.57-3.41.62-1.29.96-2.69,1.04-4.18h1.12v11.47h-.98l-2.66-3.3c-1.27,1.19-2.81,2.13-4.63,2.82-1.82.69-3.8,1.04-5.94,1.04Z"/>
    <path class="cls-1" d="M524.98,79.58c-2.63,0-4.9-.62-6.82-1.85-1.92-1.23-3.4-2.86-4.45-4.89-1.04-2.03-1.57-4.26-1.57-6.68s.52-4.65,1.57-6.68c1.04-2.03,2.53-3.66,4.45-4.88,1.92-1.22,4.2-1.83,6.82-1.83s4.9.61,6.81,1.83c1.91,1.22,3.38,2.85,4.42,4.88,1.04,2.03,1.55,4.26,1.55,6.68s-.52,4.65-1.55,6.68c-1.03,2.03-2.51,3.66-4.42,4.89-1.91,1.23-4.18,1.85-6.81,1.85ZM524.98,78.49c1.51,0,2.73-.39,3.66-1.16.93-.77,1.65-1.79,2.14-3.03s.83-2.59,1.01-4.03.27-2.81.27-4.11-.09-2.7-.27-4.13c-.18-1.43-.51-2.76-1.01-4.01s-1.21-2.26-2.14-3.04c-.93-.77-2.15-1.16-3.66-1.16s-2.73.39-3.66,1.16c-.93.77-1.65,1.79-2.14,3.04-.49,1.25-.83,2.59-1.01,4.01-.18,1.43-.27,2.8-.27,4.13s.09,2.68.27,4.11c.18,1.44.51,2.78,1.01,4.03.49,1.25,1.21,2.26,2.14,3.03.93.77,2.15,1.16,3.66,1.16Z"/>
    <path class="cls-1" d="M551.24,53.29v24.64h3.61v1.09h-12.17v-1.09h3.66v-23.55h-3.66v-1.09h8.56ZM568.31,61.15v16.78h3.66v1.09h-12.22v-1.09h3.64v-15.94c0-1.57-.07-2.94-.21-4.12-.14-1.18-.45-2.11-.94-2.77-.49-.66-1.24-.99-2.27-.99-1.51,0-2.82.41-3.92,1.23-1.1.82-2,1.87-2.71,3.15-.71,1.28-1.24,2.62-1.58,4.04s-.52,2.73-.52,3.94l-.7.14c0-1.23.16-2.63.49-4.21.33-1.58.87-3.09,1.64-4.56s1.8-2.68,3.1-3.64c1.3-.96,2.95-1.44,4.92-1.44,2.16,0,3.78.36,4.87,1.08,1.08.72,1.81,1.71,2.18,2.98.37,1.27.56,2.71.56,4.33Z"/>
    <path class="cls-1" d="M576.56,79.58v-8.17h1.12c.21,1.27.71,2.43,1.52,3.5.81,1.06,1.81,1.91,3.01,2.54,1.19.63,2.48.95,3.86.95,1.04,0,2.03-.17,2.96-.5.93-.33,1.69-.85,2.27-1.55.58-.7.87-1.59.87-2.67,0-1.17-.36-2.11-1.08-2.8s-1.64-1.25-2.75-1.69c-1.12-.44-2.31-.87-3.58-1.29-1.27-.42-2.46-.93-3.58-1.52s-2.04-1.39-2.75-2.39c-.72-1-1.08-2.31-1.08-3.93,0-1.19.27-2.34.81-3.45.54-1.11,1.38-2.02,2.5-2.74s2.57-1.08,4.32-1.08c1.27,0,2.43.21,3.5.62s2,.96,2.8,1.65l2.1-2.29h.98v7.8h-1.12c-.09-1.1-.5-2.15-1.22-3.16s-1.67-1.84-2.87-2.49-2.56-.98-4.11-.98c-.88,0-1.69.15-2.43.46-.75.31-1.34.75-1.78,1.33-.44.58-.66,1.27-.66,2.07,0,1.03.37,1.86,1.12,2.5.75.64,1.71,1.2,2.89,1.66,1.18.47,2.44.93,3.76,1.38,1.32.46,2.58,1.01,3.76,1.65,1.18.64,2.15,1.46,2.89,2.46.75,1,1.12,2.27,1.12,3.82,0,1.66-.41,3.11-1.22,4.36-.81,1.25-1.91,2.22-3.29,2.91-1.38.69-2.95,1.04-4.7,1.04-1.29,0-2.51-.22-3.66-.67-1.16-.45-2.18-1.05-3.08-1.82l-2.27,2.49h-.95Z"/>
    <path class="cls-1" d="M611.38,79.58c-2.16,0-3.8-.37-4.91-1.1-1.11-.74-1.86-1.74-2.24-3.01-.38-1.27-.57-2.71-.57-4.33v-16.75h-3.66v-1.09h8.67v17.03c0,1.57.07,2.94.22,4.12.15,1.18.47,2.11.96,2.77s1.25.99,2.25.99c1.51,0,2.81-.41,3.9-1.23,1.09-.82,1.98-1.87,2.67-3.15.69-1.28,1.2-2.63,1.52-4.05.33-1.43.49-2.74.49-3.93l.64-.14c0,1.23-.14,2.64-.43,4.22-.29,1.58-.79,3.11-1.51,4.57s-1.73,2.68-3.03,3.64c-1.31.96-2.96,1.44-4.98,1.44ZM620.69,79.02v-24.64h-3.92v-1.09h8.98v24.64h3.64v1.09h-8.7Z"/>
    <path class="cls-1" d="M643.23,37.07v40.86h4.75v1.09h-14.54v-1.09h4.78v-39.77h-4.78v-1.09h9.79Z"/>
    <path class="cls-1" d="M651.51,54.38v-1.09h14.74v1.09h-14.74ZM660.68,79.41c-1.53,0-2.68-.34-3.45-1.02-.77-.68-1.3-1.53-1.57-2.55-.27-1.02-.41-2.04-.41-3.06v-25.09c.84,0,1.74-.18,2.71-.53.97-.35,1.73-.74,2.29-1.15v28.08c0,1.4.17,2.33.5,2.8.33.47.9.7,1.71.7.88,0,1.72-.39,2.53-1.17.81-.78,1.47-1.67,1.97-2.66l.92.59c-.75,1.51-1.69,2.73-2.84,3.66s-2.61,1.4-4.38,1.4Z"/>
    <path class="cls-1" d="M679.62,79.58c-2.42,0-4.36-.62-5.8-1.86-1.44-1.24-2.17-2.92-2.17-5.05,0-2.5,1.07-4.46,3.22-5.89,2.14-1.43,5.2-2.14,9.17-2.14h6.35v.95h-6.35c-1.64,0-2.96.35-3.97,1.04s-1.74,1.55-2.21,2.57c-.47,1.03-.7,2.05-.7,3.08,0,.93.14,1.83.43,2.7.29.87.75,1.58,1.37,2.12.62.55,1.42.83,2.39.83,1.04,0,2.06-.34,3.03-1.01.98-.67,1.79-1.69,2.43-3.05.64-1.36.96-3.06.96-5.09h.64c0,2.13-.34,4-1.02,5.62-.68,1.62-1.67,2.89-2.98,3.8-1.31.91-2.91,1.37-4.81,1.37ZM692.65,79.58c-.88,0-1.68-.15-2.42-.46-.74-.31-1.33-.82-1.78-1.54s-.67-1.68-.67-2.89v-12.7c0-1.34-.11-2.63-.34-3.86s-.69-2.24-1.41-3.02-1.82-1.17-3.31-1.17c-.84,0-1.71.09-2.62.28s-1.74.47-2.52.85c-.77.38-1.4.86-1.89,1.44-.49.58-.73,1.26-.73,2.04h-1.31c0-.95.31-1.7.94-2.25.62-.55,1.31-.83,2.06-.83.8,0,1.53.26,2.2.77.66.51.99,1.25.99,2.2,0,1.12-.34,1.93-1.02,2.43-.68.5-1.4.75-2.17.75-.86,0-1.58-.26-2.17-.78-.59-.52-.88-1.29-.88-2.29,0-.88.28-1.66.85-2.36.57-.7,1.33-1.3,2.29-1.79.96-.49,2.04-.88,3.24-1.15,1.2-.27,2.44-.41,3.71-.41,2.57,0,4.5.45,5.78,1.34,1.28.9,2.13,2.04,2.56,3.44s.64,2.85.64,4.36v13.76c0,.62.11,1.14.32,1.57.21.43.67.64,1.36.64.48,0,1.02-.2,1.61-.6.59-.4,1.04-.91,1.36-1.52l.53,1.01c-.49.76-1.17,1.41-2.06,1.94-.89.53-1.93.8-3.15.8Z"/>
    <path class="cls-1" d="M708.93,53.29v24.64h3.61v1.09h-12.17v-1.09h3.66v-23.55h-3.66v-1.09h8.56ZM725.99,61.15v16.78h3.66v1.09h-12.22v-1.09h3.64v-15.94c0-1.57-.07-2.94-.21-4.12-.14-1.18-.45-2.11-.94-2.77-.49-.66-1.24-.99-2.27-.99-1.51,0-2.82.41-3.92,1.23-1.1.82-2,1.87-2.71,3.15-.71,1.28-1.24,2.62-1.58,4.04s-.52,2.73-.52,3.94l-.7.14c0-1.23.16-2.63.49-4.21.33-1.58.87-3.09,1.64-4.56s1.8-2.68,3.1-3.64c1.3-.96,2.95-1.44,4.92-1.44,2.16,0,3.78.36,4.87,1.08,1.08.72,1.81,1.71,2.18,2.98.37,1.27.56,2.71.56,4.33Z"/>
    <path class="cls-1" d="M733.12,54.38v-1.09h14.74v1.09h-14.74ZM742.29,79.41c-1.53,0-2.68-.34-3.45-1.02-.77-.68-1.3-1.53-1.57-2.55-.27-1.02-.41-2.04-.41-3.06v-25.09c.84,0,1.74-.18,2.71-.53.97-.35,1.73-.74,2.29-1.15v28.08c0,1.4.17,2.33.5,2.8.33.47.9.7,1.71.7.88,0,1.72-.39,2.53-1.17.81-.78,1.47-1.67,1.97-2.66l.92.59c-.75,1.51-1.69,2.73-2.84,3.66s-2.61,1.4-4.38,1.4Z"/>
    <path class="cls-1" d="M470.98,134.96v-1.09h5.03v-39.77h-5.03v-1.09h29.84v11.47h-1.09c0-2-.28-3.78-.85-5.34-.57-1.57-1.5-2.8-2.8-3.69-1.3-.89-3.04-1.34-5.22-1.34h-9.51v39.77h8.92c2.55,0,4.56-.47,6.01-1.4,1.46-.93,2.48-2.26,3.09-3.97.61-1.71.91-3.76.91-6.12h1.09v12.59h-30.4ZM490.22,119.38c0-1.25-.24-2.28-.71-3.1-.47-.82-1.13-1.44-1.97-1.85s-1.79-.62-2.85-.62h-4.67v-1.09h4.67c1.06,0,2.01-.19,2.85-.56s1.5-.95,1.97-1.73c.48-.78.71-1.8.71-3.05h1.09v12h-1.09Z"/>
    <path class="cls-1" d="M514.44,109.22v24.64h3.61v1.09h-12.17v-1.09h3.66v-23.55h-3.66v-1.09h8.56ZM531.5,117.08v16.78h3.66v1.09h-12.22v-1.09h3.64v-15.94c0-1.57-.07-2.94-.21-4.12-.14-1.18-.45-2.11-.94-2.77-.49-.66-1.24-.99-2.27-.99-1.51,0-2.82.41-3.92,1.23-1.1.82-2,1.87-2.71,3.15-.71,1.28-1.24,2.62-1.58,4.04s-.52,2.73-.52,3.94l-.7.14c0-1.23.16-2.63.49-4.21.33-1.58.87-3.09,1.64-4.56s1.8-2.68,3.1-3.64c1.3-.96,2.95-1.44,4.92-1.44,2.16,0,3.78.36,4.87,1.08,1.08.72,1.81,1.71,2.18,2.98.37,1.27.56,2.71.56,4.33Z"/>
    <path class="cls-1" d="M538.63,110.32v-1.09h14.74v1.09h-14.74ZM547.81,135.35c-1.53,0-2.68-.34-3.45-1.02-.77-.68-1.3-1.53-1.57-2.55-.27-1.02-.41-2.04-.41-3.06v-25.09c.84,0,1.74-.18,2.71-.53.97-.35,1.73-.74,2.29-1.15v28.08c0,1.4.17,2.33.5,2.8.33.47.9.7,1.71.7.88,0,1.72-.39,2.53-1.17.81-.78,1.47-1.67,1.97-2.66l.92.59c-.75,1.51-1.69,2.73-2.84,3.66s-2.61,1.4-4.38,1.4Z"/>
    <path class="cls-1" d="M566.52,109.22v24.64h3.97v1.09h-12.53v-1.09h3.66v-23.55h-3.66v-1.09h8.56ZM565.87,122.96c0-1.64.17-3.3.52-4.96.34-1.67.87-3.21,1.57-4.61.7-1.41,1.58-2.54,2.64-3.4,1.06-.86,2.3-1.29,3.72-1.29,1.04,0,1.92.2,2.64.59s1.26.9,1.64,1.54c.37.63.56,1.31.56,2.04,0,.95-.28,1.76-.85,2.42-.57.66-1.35.99-2.33.99s-1.78-.28-2.36-.83c-.59-.55-.88-1.25-.88-2.08,0-1.04.34-1.83,1.02-2.35.68-.52,1.42-.78,2.22-.78.58,0,1.1.11,1.58.33s.85.54,1.13.94c.28.4.42.85.42,1.36h-1.09c0-.58-.17-1.1-.52-1.55-.34-.46-.81-.82-1.38-1.09-.58-.27-1.21-.41-1.9-.41-1.12,0-2.15.38-3.09,1.13-.94.75-1.75,1.77-2.43,3.05s-1.21,2.69-1.59,4.24c-.38,1.55-.57,3.12-.57,4.73h-.64Z"/>
    <path class="cls-1" d="M591.18,135.51c-2.42,0-4.36-.62-5.8-1.86-1.44-1.24-2.17-2.92-2.17-5.05,0-2.5,1.07-4.46,3.22-5.89,2.14-1.43,5.2-2.14,9.17-2.14h6.35v.95h-6.35c-1.64,0-2.96.35-3.97,1.04s-1.74,1.55-2.21,2.57c-.47,1.03-.7,2.05-.7,3.08,0,.93.14,1.83.43,2.7.29.87.75,1.58,1.37,2.12.62.55,1.42.83,2.39.83,1.04,0,2.06-.34,3.03-1.01.98-.67,1.79-1.69,2.43-3.05.64-1.36.96-3.06.96-5.09h.64c0,2.13-.34,4-1.02,5.62-.68,1.62-1.67,2.89-2.98,3.8-1.31.91-2.91,1.37-4.81,1.37ZM604.22,135.51c-.88,0-1.68-.15-2.42-.46-.74-.31-1.33-.82-1.78-1.54s-.67-1.68-.67-2.89v-12.7c0-1.34-.11-2.63-.34-3.86s-.69-2.24-1.41-3.02-1.82-1.17-3.31-1.17c-.84,0-1.71.09-2.62.28s-1.74.47-2.52.85c-.77.38-1.4.86-1.89,1.44-.49.58-.73,1.26-.73,2.04h-1.31c0-.95.31-1.7.94-2.25.62-.55,1.31-.83,2.06-.83.8,0,1.53.26,2.2.77.66.51.99,1.25.99,2.2,0,1.12-.34,1.93-1.02,2.43-.68.5-1.4.75-2.17.75-.86,0-1.58-.26-2.17-.78-.59-.52-.88-1.29-.88-2.29,0-.88.28-1.66.85-2.36.57-.7,1.33-1.3,2.29-1.79.96-.49,2.04-.88,3.24-1.15,1.2-.27,2.44-.41,3.71-.41,2.57,0,4.5.45,5.78,1.34,1.28.9,2.13,2.04,2.56,3.44s.64,2.85.64,4.36v13.76c0,.62.11,1.14.32,1.57.21.43.67.64,1.36.64.48,0,1.02-.2,1.61-.6.59-.4,1.04-.91,1.36-1.52l.53,1.01c-.49.76-1.17,1.41-2.06,1.94-.89.53-1.93.8-3.15.8Z"/>
    <path class="cls-1" d="M611.1,103.69l-.56-.59,6.15-6.15h3.64l6.15,6.15-.56.59-7.44-4.22-7.38,4.22ZM620.88,109.22v24.64h3.66v1.09h-12.33v-1.09h3.64v-23.55h-3.64v-1.09h8.67Z"/>
    <path class="cls-1" d="M637.44,109.22v24.64h3.61v1.09h-12.17v-1.09h3.66v-23.55h-3.66v-1.09h8.56ZM654.5,117.08v16.78h3.66v1.09h-12.22v-1.09h3.64v-15.94c0-1.57-.07-2.94-.21-4.12-.14-1.18-.45-2.11-.94-2.77-.49-.66-1.24-.99-2.27-.99-1.51,0-2.82.41-3.92,1.23-1.1.82-2,1.87-2.71,3.15-.71,1.28-1.24,2.62-1.58,4.04s-.52,2.73-.52,3.94l-.7.14c0-1.23.16-2.63.49-4.21.33-1.58.87-3.09,1.64-4.56s1.8-2.68,3.1-3.64c1.3-.96,2.95-1.44,4.92-1.44,2.16,0,3.78.36,4.87,1.08,1.08.72,1.81,1.71,2.18,2.98.37,1.27.56,2.71.56,4.33Z"/>
    <path class="cls-1" d="M675.73,135.51c-2.37,0-4.51-.54-6.43-1.61-1.92-1.07-3.44-2.61-4.57-4.62-1.13-2-1.69-4.4-1.69-7.2s.53-5.19,1.59-7.19c1.06-1.99,2.53-3.53,4.39-4.6,1.86-1.07,3.99-1.61,6.38-1.61,2.7,0,4.86.54,6.47,1.61,1.61,1.07,2.78,2.49,3.5,4.24.72,1.75,1.08,3.65,1.08,5.68h-19.63v-1.09h13.71c0-.93-.05-1.94-.15-3.02s-.32-2.1-.64-3.06-.83-1.75-1.52-2.36c-.69-.62-1.62-.92-2.8-.92-1.34,0-2.44.33-3.3,1.01-.86.67-1.52,1.59-2,2.75s-.81,2.48-1.01,3.96c-.2,1.47-.29,3.01-.29,4.62s.11,3.14.32,4.6c.21,1.46.59,2.77,1.12,3.92.53,1.15,1.27,2.05,2.21,2.71s2.14.99,3.59.99c2.5,0,4.54-.63,6.14-1.89,1.59-1.26,2.74-2.85,3.43-4.77h1.26c-.73,2.26-2,4.13-3.83,5.62-1.83,1.49-4.26,2.24-7.3,2.24Z"/>
    <path class="cls-1" d="M700.03,109.22v24.64h3.61v1.09h-12.17v-1.09h3.66v-23.55h-3.66v-1.09h8.56ZM715.98,117.08v16.78h3.64v1.09h-12.17v-1.09h3.61v-16.14c0-1.57-.06-2.93-.18-4.08s-.41-2.05-.85-2.67c-.45-.62-1.17-.94-2.15-.94-1.32,0-2.48.42-3.47,1.25-.99.83-1.8,1.88-2.45,3.16-.64,1.28-1.12,2.61-1.44,4-.32,1.39-.48,2.64-.48,3.76l-.62.14c0-1.23.15-2.62.46-4.18s.83-3.06,1.55-4.5c.73-1.44,1.7-2.63,2.92-3.57,1.22-.93,2.75-1.4,4.57-1.4s3.3.36,4.32,1.08c1.02.72,1.72,1.71,2.12,2.98.4,1.27.6,2.71.6,4.33ZM731.89,117.08v16.78h3.66v1.09h-12.19v-1.09h3.64v-16.14c0-1.57-.08-2.93-.25-4.08s-.5-2.05-.99-2.67c-.49-.62-1.24-.94-2.22-.94-1.36,0-2.52.42-3.48,1.25-.96.83-1.74,1.88-2.33,3.16-.6,1.28-1.04,2.61-1.31,4-.28,1.39-.42,2.64-.42,3.76l-.7.14c0-1.23.14-2.62.42-4.18.28-1.56.76-3.06,1.44-4.5.68-1.44,1.63-2.63,2.84-3.57,1.21-.93,2.75-1.4,4.62-1.4s3.32.36,4.38,1.08,1.8,1.71,2.25,2.98c.45,1.27.67,2.71.67,4.33Z"/>
    <path class="cls-1" d="M753.15,135.51c-2.37,0-4.51-.54-6.43-1.61-1.92-1.07-3.44-2.61-4.57-4.62-1.13-2-1.69-4.4-1.69-7.2s.53-5.19,1.59-7.19c1.06-1.99,2.53-3.53,4.39-4.6,1.86-1.07,3.99-1.61,6.38-1.61,2.7,0,4.86.54,6.47,1.61,1.61,1.07,2.78,2.49,3.5,4.24.72,1.75,1.08,3.65,1.08,5.68h-19.63v-1.09h13.71c0-.93-.05-1.94-.15-3.02s-.32-2.1-.64-3.06-.83-1.75-1.52-2.36c-.69-.62-1.62-.92-2.8-.92-1.34,0-2.44.33-3.3,1.01-.86.67-1.52,1.59-2,2.75s-.81,2.48-1.01,3.96c-.2,1.47-.29,3.01-.29,4.62s.11,3.14.32,4.6c.21,1.46.59,2.77,1.12,3.92.53,1.15,1.27,2.05,2.21,2.71s2.14.99,3.59.99c2.5,0,4.54-.63,6.14-1.89,1.59-1.26,2.74-2.85,3.43-4.77h1.26c-.73,2.26-2,4.13-3.83,5.62-1.83,1.49-4.26,2.24-7.3,2.24Z"/>
    <path class="cls-1" d="M777.45,109.22v24.64h3.61v1.09h-12.17v-1.09h3.66v-23.55h-3.66v-1.09h8.56ZM794.51,117.08v16.78h3.66v1.09h-12.22v-1.09h3.64v-15.94c0-1.57-.07-2.94-.21-4.12-.14-1.18-.45-2.11-.94-2.77-.49-.66-1.24-.99-2.27-.99-1.51,0-2.82.41-3.92,1.23-1.1.82-2,1.87-2.71,3.15-.71,1.28-1.24,2.62-1.58,4.04s-.52,2.73-.52,3.94l-.7.14c0-1.23.16-2.63.49-4.21.33-1.58.87-3.09,1.64-4.56s1.8-2.68,3.1-3.64c1.3-.96,2.95-1.44,4.92-1.44,2.16,0,3.78.36,4.87,1.08,1.08.72,1.81,1.71,2.18,2.98.37,1.27.56,2.71.56,4.33Z"/>
    <path class="cls-1" d="M801.64,110.32v-1.09h14.74v1.09h-14.74ZM810.82,135.35c-1.53,0-2.68-.34-3.45-1.02-.77-.68-1.3-1.53-1.57-2.55-.27-1.02-.41-2.04-.41-3.06v-25.09c.84,0,1.74-.18,2.71-.53.97-.35,1.73-.74,2.29-1.15v28.08c0,1.4.17,2.33.5,2.8.33.47.9.7,1.71.7.88,0,1.72-.39,2.53-1.17.81-.78,1.47-1.67,1.97-2.66l.92.59c-.75,1.51-1.69,2.73-2.84,3.66s-2.61,1.4-4.38,1.4Z"/>
    <path class="cls-1" d="M484.29,191.45c-2.48,0-4.68-.41-6.61-1.22s-3.45-1.98-4.54-3.51c-1.1-1.53-1.65-3.37-1.65-5.51,0-1.62.38-3.08,1.13-4.38s1.71-2.44,2.88-3.43c1.17-.99,2.37-1.83,3.62-2.53,1.25-.7,2.38-1.27,3.4-1.71,1.02-.44,1.74-.76,2.17-.96l.42.81c-1.58.86-2.94,1.82-4.06,2.88-1.12,1.06-1.97,2.32-2.54,3.78-.58,1.45-.87,3.22-.87,5.29,0,1.12.21,2.2.64,3.23.43,1.03,1.04,1.96,1.83,2.78.79.82,1.73,1.47,2.83,1.94s2.29.71,3.59.71c2.11,0,4.11-.46,6.01-1.38,1.9-.92,3.66-2.19,5.27-3.79,1.61-1.6,3.04-3.44,4.27-5.51s2.23-4.26,3.01-6.57c.77-2.31,1.27-4.62,1.5-6.94h1.12c-.28,2.5-.85,4.99-1.72,7.48s-2,4.84-3.38,7.06c-1.39,2.22-3.01,4.19-4.85,5.92s-3.9,3.08-6.15,4.07-4.69,1.48-7.3,1.48ZM499.17,190.89l-18.51-27.41c-.73-1.06-1.34-2.24-1.83-3.52-.49-1.29-.74-2.42-.74-3.38,0-1.68.48-3.13,1.45-4.36.97-1.23,2.3-2.18,4-2.84,1.7-.66,3.63-.99,5.79-.99,2,0,3.79.31,5.38.92,1.59.62,2.85,1.48,3.78,2.59s1.38,2.41,1.38,3.9-.29,2.8-.88,3.87c-.59,1.07-1.39,2.01-2.42,2.81s-2.2,1.55-3.52,2.24c-1.32.69-2.72,1.42-4.2,2.18l-.62-.75c.9-.56,1.83-1.29,2.8-2.2s1.79-2.04,2.45-3.4c.66-1.36.99-2.99.99-4.89,0-.89-.14-1.83-.42-2.81-.28-.98-.79-1.81-1.52-2.49s-1.8-1.02-3.2-1.02-2.57.28-3.41.82c-.84.55-1.44,1.27-1.8,2.15s-.55,1.82-.55,2.81.34,2.16,1.01,3.57c.67,1.41,1.6,3.01,2.8,4.8l17.42,26.32h7.47v1.09h-13.09ZM499.67,166.25v-1.09h13.42v1.09h-13.42Z"/>
    <path class="cls-1" d="M550.83,148.13l14.43,41.67h4.36v1.09h-16.22v-1.09h5.73l-10.99-34.04-11.86,34.04h5.93v1.09h-12.31v-1.09h5.12l14.66-41.67h1.15ZM540.25,177.77v-1.09h18.12v1.09h-18.12Z"/>
    <path class="cls-1" d="M584.36,191.42c-1.96,0-3.81-.53-5.57-1.59-1.75-1.06-3.18-2.59-4.29-4.59s-1.66-4.39-1.66-7.19.55-5.2,1.66-7.2,2.54-3.54,4.29-4.62c1.75-1.07,3.61-1.61,5.57-1.61,2.28,0,4.18.78,5.72,2.35s2.61,3.68,3.2,6.35v-23.3h-3.66v-1.09h8.73v40.86h3.64v1.09h-8.7v-8.11c-.6,2.65-1.66,4.75-3.2,6.31s-3.44,2.33-5.72,2.33ZM585.34,189.91c1.4,0,2.7-.47,3.9-1.4,1.2-.93,2.18-2.28,2.92-4.04.75-1.76,1.12-3.9,1.12-6.42s-.37-4.67-1.12-6.45c-.75-1.78-1.72-3.14-2.92-4.07-1.2-.93-2.5-1.4-3.9-1.4s-2.68.47-3.68,1.41c-1,.94-1.76,2.3-2.28,4.08-.52,1.78-.78,3.92-.78,6.42s.26,4.63.78,6.41c.52,1.77,1.28,3.12,2.28,4.06,1,.93,2.22,1.4,3.68,1.4Z"/>
    <path class="cls-1" d="M614.54,191.45c-2.42,0-4.36-.62-5.8-1.86-1.44-1.24-2.17-2.92-2.17-5.05,0-2.5,1.07-4.46,3.22-5.89,2.14-1.43,5.2-2.14,9.17-2.14h6.35v.95h-6.35c-1.64,0-2.96.35-3.97,1.04s-1.74,1.55-2.21,2.57c-.47,1.03-.7,2.05-.7,3.08,0,.93.14,1.83.43,2.7.29.87.75,1.58,1.37,2.12.62.55,1.42.83,2.39.83,1.04,0,2.06-.34,3.03-1.01.98-.67,1.79-1.69,2.43-3.05.64-1.36.96-3.06.96-5.09h.64c0,2.13-.34,4-1.02,5.62-.68,1.62-1.67,2.89-2.98,3.8-1.31.91-2.91,1.37-4.81,1.37ZM627.57,191.45c-.88,0-1.68-.15-2.42-.46-.74-.31-1.33-.82-1.78-1.54s-.67-1.68-.67-2.89v-12.7c0-1.34-.11-2.63-.34-3.86s-.69-2.24-1.41-3.02-1.82-1.17-3.31-1.17c-.84,0-1.71.09-2.62.28s-1.74.47-2.52.85c-.77.38-1.4.86-1.89,1.44-.49.58-.73,1.26-.73,2.04h-1.31c0-.95.31-1.7.94-2.25.62-.55,1.31-.83,2.06-.83.8,0,1.53.26,2.2.77.66.51.99,1.25.99,2.2,0,1.12-.34,1.93-1.02,2.43-.68.5-1.4.75-2.17.75-.86,0-1.58-.26-2.17-.78-.59-.52-.88-1.29-.88-2.29,0-.88.28-1.66.85-2.36.57-.7,1.33-1.3,2.29-1.79.96-.49,2.04-.88,3.24-1.15,1.2-.27,2.44-.41,3.71-.41,2.57,0,4.5.45,5.78,1.34,1.28.9,2.13,2.04,2.56,3.44s.64,2.85.64,4.36v13.76c0,.62.11,1.14.32,1.57.21.43.67.64,1.36.64.48,0,1.02-.2,1.61-.6.59-.4,1.04-.91,1.36-1.52l.53,1.01c-.49.76-1.17,1.41-2.06,1.94-.89.53-1.93.8-3.15.8Z"/>
    <path class="cls-1" d="M635.29,204.88v-1.09h3.66v-37.53h-3.66v-1.09h8.67v8.17c.62-2.67,1.7-4.78,3.26-6.33,1.56-1.56,3.46-2.33,5.72-2.33,1.96,0,3.81.53,5.57,1.59,1.75,1.06,3.18,2.59,4.28,4.59,1.1,2,1.65,4.39,1.65,7.19s-.55,5.2-1.65,7.2c-1.1,2-2.53,3.54-4.28,4.62-1.75,1.07-3.61,1.61-5.57,1.61-2.26,0-4.16-.79-5.72-2.36s-2.64-3.69-3.26-6.33v21.03h3.64v1.09h-12.31ZM651.93,189.94c1.45,0,2.69-.47,3.69-1.41s1.77-2.3,2.29-4.08c.52-1.78.78-3.92.78-6.42s-.26-4.63-.78-6.41c-.52-1.77-1.29-3.12-2.29-4.05s-2.24-1.4-3.69-1.4-2.7.46-3.92,1.38c-1.21.92-2.19,2.27-2.94,4.04-.75,1.77-1.12,3.92-1.12,6.43s.37,4.67,1.12,6.45c.75,1.78,1.72,3.14,2.94,4.07,1.21.93,2.52,1.4,3.92,1.4Z"/>
    <path class="cls-1" d="M668.77,166.25v-1.09h14.74v1.09h-14.74ZM677.94,191.28c-1.53,0-2.68-.34-3.45-1.02-.77-.68-1.3-1.53-1.57-2.55-.27-1.02-.41-2.04-.41-3.06v-25.09c.84,0,1.74-.18,2.71-.53.97-.35,1.73-.74,2.29-1.15v28.08c0,1.4.17,2.33.5,2.8.33.47.9.7,1.71.7.88,0,1.72-.39,2.53-1.17.81-.78,1.47-1.67,1.97-2.66l.92.59c-.75,1.51-1.69,2.73-2.84,3.66s-2.61,1.4-4.38,1.4Z"/>
    <path class="cls-1" d="M696.87,191.45c-2.42,0-4.36-.62-5.8-1.86-1.44-1.24-2.17-2.92-2.17-5.05,0-2.5,1.07-4.46,3.22-5.89,2.14-1.43,5.2-2.14,9.17-2.14h6.35v.95h-6.35c-1.64,0-2.96.35-3.97,1.04s-1.74,1.55-2.21,2.57c-.47,1.03-.7,2.05-.7,3.08,0,.93.14,1.83.43,2.7.29.87.75,1.58,1.37,2.12.62.55,1.42.83,2.39.83,1.04,0,2.06-.34,3.03-1.01.98-.67,1.79-1.69,2.43-3.05.64-1.36.96-3.06.96-5.09h.64c0,2.13-.34,4-1.02,5.62-.68,1.62-1.67,2.89-2.98,3.8-1.31.91-2.91,1.37-4.81,1.37ZM709.91,191.45c-.88,0-1.68-.15-2.42-.46-.74-.31-1.33-.82-1.78-1.54s-.67-1.68-.67-2.89v-12.7c0-1.34-.11-2.63-.34-3.86s-.69-2.24-1.41-3.02-1.82-1.17-3.31-1.17c-.84,0-1.71.09-2.62.28s-1.74.47-2.52.85c-.77.38-1.4.86-1.89,1.44-.49.58-.73,1.26-.73,2.04h-1.31c0-.95.31-1.7.94-2.25.62-.55,1.31-.83,2.06-.83.8,0,1.53.26,2.2.77.66.51.99,1.25.99,2.2,0,1.12-.34,1.93-1.02,2.43-.68.5-1.4.75-2.17.75-.86,0-1.58-.26-2.17-.78-.59-.52-.88-1.29-.88-2.29,0-.88.28-1.66.85-2.36.57-.7,1.33-1.3,2.29-1.79.96-.49,2.04-.88,3.24-1.15,1.2-.27,2.44-.41,3.71-.41,2.57,0,4.5.45,5.78,1.34,1.28.9,2.13,2.04,2.56,3.44s.64,2.85.64,4.36v13.76c0,.62.11,1.14.32,1.57.21.43.67.64,1.36.64.48,0,1.02-.2,1.61-.6.59-.4,1.04-.91,1.36-1.52l.53,1.01c-.49.76-1.17,1.41-2.06,1.94-.89.53-1.93.8-3.15.8Z"/>
    <path class="cls-1" d="M717.07,166.25v-1.09h14.74v1.09h-14.74ZM726.24,191.28c-1.53,0-2.68-.34-3.45-1.02-.77-.68-1.3-1.53-1.57-2.55-.27-1.02-.41-2.04-.41-3.06v-25.09c.84,0,1.74-.18,2.71-.53.97-.35,1.73-.74,2.29-1.15v28.08c0,1.4.17,2.33.5,2.8.33.47.9.7,1.71.7.88,0,1.72-.39,2.53-1.17.81-.78,1.47-1.67,1.97-2.66l.92.59c-.75,1.51-1.69,2.73-2.84,3.66s-2.61,1.4-4.38,1.4Z"/>
    <path class="cls-1" d="M745.34,165.16v24.64h3.66v1.09h-12.33v-1.09h3.64v-23.55h-3.64v-1.09h8.67ZM742.85,155.26c-.91,0-1.7-.33-2.36-1.01-.66-.67-.99-1.46-.99-2.38s.33-1.72.99-2.38c.66-.65,1.45-.98,2.36-.98s1.72.33,2.38.98c.65.65.98,1.45.98,2.38s-.33,1.71-.98,2.38c-.65.67-1.45,1.01-2.38,1.01Z"/>
    <path class="cls-1" d="M767.02,191.45c-2.63,0-4.9-.62-6.82-1.85-1.92-1.23-3.4-2.86-4.45-4.89-1.04-2.03-1.57-4.26-1.57-6.68s.52-4.65,1.57-6.68c1.04-2.03,2.53-3.66,4.45-4.88,1.92-1.22,4.2-1.83,6.82-1.83s4.9.61,6.81,1.83c1.91,1.22,3.38,2.85,4.42,4.88,1.04,2.03,1.55,4.26,1.55,6.68s-.52,4.65-1.55,6.68c-1.03,2.03-2.51,3.66-4.42,4.89-1.91,1.23-4.18,1.85-6.81,1.85ZM767.02,190.36c1.51,0,2.73-.39,3.66-1.16.93-.77,1.65-1.79,2.14-3.03s.83-2.59,1.01-4.03.27-2.81.27-4.11-.09-2.7-.27-4.13c-.18-1.43-.51-2.76-1.01-4.01s-1.21-2.26-2.14-3.04c-.93-.77-2.15-1.16-3.66-1.16s-2.73.39-3.66,1.16c-.93.77-1.65,1.79-2.14,3.04-.49,1.25-.83,2.59-1.01,4.01-.18,1.43-.27,2.8-.27,4.13s.09,2.68.27,4.11c.18,1.44.51,2.78,1.01,4.03.49,1.25,1.21,2.26,2.14,3.03.93.77,2.15,1.16,3.66,1.16Z"/>
    <path class="cls-1" d="M793.28,165.16v24.64h3.61v1.09h-12.17v-1.09h3.66v-23.55h-3.66v-1.09h8.56ZM810.34,173.02v16.78h3.66v1.09h-12.22v-1.09h3.64v-15.94c0-1.57-.07-2.94-.21-4.12-.14-1.18-.45-2.11-.94-2.77-.49-.66-1.24-.99-2.27-.99-1.51,0-2.82.41-3.92,1.23-1.1.82-2,1.87-2.71,3.15-.71,1.28-1.24,2.62-1.58,4.04s-.52,2.73-.52,3.94l-.7.14c0-1.23.16-2.63.49-4.21.33-1.58.87-3.09,1.64-4.56s1.8-2.68,3.1-3.64c1.3-.96,2.95-1.44,4.92-1.44,2.16,0,3.78.36,4.87,1.08,1.08.72,1.81,1.71,2.18,2.98.37,1.27.56,2.71.56,4.33Z"/>
  </g>
  <line class="cls-2" x1="416.6" y1="33.3" x2="416.6" y2="206.5"/>
</svg>